<?xml version="1.0" standalone="no"?>
<!DOCTYPE svg PUBLIC "-//W3C//DTD SVG 20010904//EN"
 "http://www.w3.org/TR/2001/REC-SVG-20010904/DTD/svg10.dtd">
<svg version="1.0" xmlns="http://www.w3.org/2000/svg"
 width="1280.000000pt" height="640.000000pt" viewBox="0 0 1280.000000 640.000000"
 preserveAspectRatio="xMidYMid meet">
<metadata>
Created by potrace 1.15, written by Peter Selinger 2001-2017
</metadata>
<g transform="translate(0.000000,640.000000) scale(0.100000,-0.100000)"
fill="#000000" stroke="none">
<path d="M9959 5469 c-73 -10 -214 -67 -297 -120 -103 -64 -283 -202 -325
-248 -45 -49 -57 -78 -57 -132 0 -52 27 -79 79 -79 56 0 92 35 147 141 71 137
182 228 357 292 69 25 98 30 182 31 l100 1 950 -499 c523 -275 954 -502 958
-506 4 -4 -29 1 -75 11 -302 66 -779 78 -1353 34 -816 -61 -1440 -161 -1785
-284 -181 -65 -345 -95 -602 -111 -190 -11 -472 1 -578 26 -335 79 -905 101
-1670 64 -590 -29 -938 -72 -1273 -156 -159 -40 -244 -68 -442 -147 -179 -71
-232 -85 -385 -98 -69 -6 -129 -15 -135 -19 -5 -4 -235 101 -510 232 -275 131
-898 429 -1385 661 l-885 421 -100 4 c-71 3 -119 -1 -165 -13 -110 -27 -273
-115 -420 -225 -157 -117 -214 -170 -241 -222 -44 -87 -11 -168 70 -168 56 0
102 43 151 139 53 106 88 150 161 206 163 122 399 191 531 155 20 -6 657 -337
1415 -736 l1378 -726 107 -23 c59 -13 120 -30 135 -37 l27 -13 -3 -105 c-5
-246 51 -591 146 -885 53 -164 122 -255 221 -290 129 -45 809 -25 1422 41 350
38 1237 160 1333 184 103 25 193 70 243 120 49 48 171 228 244 359 103 186
158 333 245 655 68 250 98 294 233 347 45 18 79 23 157 23 95 1 103 -1 170
-35 90 -45 98 -61 169 -313 68 -238 111 -358 179 -490 87 -170 245 -393 319
-449 51 -39 146 -66 270 -77 255 -22 1472 -9 1873 20 330 24 710 74 800 105
119 41 192 129 249 302 94 286 144 567 155 863 l6 185 30 15 c17 8 77 31 135
51 l105 36 3 129 c2 112 0 130 -15 141 -9 7 -25 13 -36 13 -10 0 -580 267
-1265 594 -932 444 -1262 597 -1306 605 -66 12 -67 12 -147 0z m1755 -1214
c229 -22 385 -56 447 -98 191 -128 196 -682 12 -1251 -55 -172 -121 -229 -305
-266 -265 -54 -844 -91 -1658 -105 -367 -7 -893 8 -952 26 -89 28 -162 126
-288 384 -136 277 -200 486 -200 658 0 165 43 245 167 310 259 136 1174 297
1963 346 225 14 646 12 814 -4z m-4804 -340 c456 -30 674 -78 740 -162 71 -90
63 -306 -18 -558 -77 -236 -245 -579 -332 -678 -73 -82 -116 -96 -440 -146
-544 -84 -1278 -163 -1800 -196 -417 -26 -578 -18 -659 33 -51 31 -71 61 -106
158 -120 338 -169 823 -105 1053 52 186 120 247 357 320 286 89 673 146 1213
180 222 14 918 12 1150 -4z"/>
</g>
</svg>
